<svg id="Layer_1" data-name="Layer 1" xmlns="http://www.w3.org/2000/svg" viewBox="0 0 113.33 156.48"><defs><style>.cls-1{fill:#4491ff;}.cls-2{fill:#ffadc8;}.cls-3{fill:#37486b;}.cls-4{fill:#3f42b3;}.cls-5{fill:#474bca;}.cls-6{fill:#ff82a0;}.cls-7{fill:#ff94ae;}.cls-8{fill:#8f98f8;}.cls-9{fill:#a1a9f8;}</style></defs><title>man</title><path class="cls-1" d="M1518.12,1141.95s3.55.53,4-1.78-4.08-5.24-6.57-7-15.09-3.46-14.65,4.53a5.75,5.75,0,0,0-3.46,5.33c-.18,4.17.71,10.57,2,11.54S1518.12,1141.95,1518.12,1141.95Z" transform="translate(-1474.95 -1131.68)"/><path class="cls-2" d="M1557.59,1249.27s2.95,6.31,3.6,8.52,6.11.92,6.11.92l4.4-4.27-5.46-10.08Z" transform="translate(-1474.95 -1131.68)"/><path class="cls-2" d="M1543.46,1271.25s.47,6.95.27,9.24,5.36,3.06,5.36,3.06l5.65-2.39-1.45-11.37Z" transform="translate(-1474.95 -1131.68)"/><path class="cls-3" d="M1542.1,1279.15c.29-2,3.54,1.82,6.32,1.82s6.8-3.93,6.8-3.93a63.5,63.5,0,0,0,8.43,3.93c3.26,1.05,8.33,2.11,8.33,4.6v1.08a1.41,1.41,0,0,1-1.41,1.41H1543a1.41,1.41,0,0,1-1.41-1.47C1541.66,1284.58,1541.84,1281,1542.1,1279.15Z" transform="translate(-1474.95 -1131.68)"/><path class="cls-4" d="M1511.39,1210.85s7.48-1.11,17.27-1.68,18.91-3.09,21.58.84,17.8,34.85,17.8,34.85l-11.12,6.23-13.35-21.62-32.18-13.1Z" transform="translate(-1474.95 -1131.68)"/><path class="cls-5" d="M1489.84,1221.61s1.64,12.58,17.14,11.49c11.46-.81,31.2,0,31.2,0l4.2,39.93s9.55,2.67,13.37-2.1c0,0-2.48-38.28-3.06-42.64s-1.53-8.94-7.83-10.47-26.37-4.2-29.23-4.78-6.29-3.82-6.29-3.82Z" transform="translate(-1474.95 -1131.68)"/><path class="cls-2" d="M1511.47,1137.43c9,.51,9.31,5.25,8.55,9.73s-2.68,12.86-5.87,13.53-8.42-3.69-9.18-6.37-1.53-9.61-.77-12.52S1507.51,1137.21,1511.47,1137.43Z" transform="translate(-1474.95 -1131.68)"/><path class="cls-2" d="M1509.78,1158.6s-2.67,6.35-2.67,9l-10.83-5.95s4-6.66,4.79-10.3l3.55,1.51Z" transform="translate(-1474.95 -1131.68)"/><path class="cls-1" d="M1517.83,1139.15c-2.73-.85-4.66,1-4.66,2.32s-.65,4.11-2.69,4.73a31.11,31.11,0,0,1-4.24.92l-5.34-2.07,2.26-6.73,6.62-2.51,7.1.62Z" transform="translate(-1474.95 -1131.68)"/><path class="cls-2" d="M1506.24,1147.13s-1.44-4.74-4.63-1.81-.89,7.81.62,8.61a5.13,5.13,0,0,0,3.55.09Z" transform="translate(-1474.95 -1131.68)"/><path class="cls-6" d="M1501.74,1158.61c-3.86-.15-9.91,1-14.73,16.08s-2.46,45.65.88,48.38,20.81-2.73,24.39-9.26c1.42-2.6-2.11-9.81-.6-22.55S1510.65,1159,1501.74,1158.61Z" transform="translate(-1474.95 -1131.68)"/><rect class="cls-1" x="43.58" y="75.16" width="30.48" height="4.4" rx="2.2" ry="2.2"/><rect class="cls-1" x="1535.96" y="1195.01" width="30.48" height="4.4" rx="2.2" ry="2.2" transform="translate(1731.8 -982.65) rotate(110)"/><path class="cls-2" d="M1518,1207.2a25.18,25.18,0,0,0,6.39.85c3.52,0,4.93-1.69,7-2.39s3.08,1.66,5.23,1.66.52-2-1.24-3.91-3.2-4-5.09-4-11.87,3.46-11.87,3.46Z" transform="translate(-1474.95 -1131.68)"/><path class="cls-7" d="M1493.69,1170.12c5.87-.8,8.79,6.51,8.41,12.85s-1.51,15.35-1.51,15.35a58.41,58.41,0,0,0,18.73,3.8s3.28,4.23-1.32,9.58c0,0-24.31,1-26.85-2s-4.23-5.25-3.38-18.75S1488.76,1170.79,1493.69,1170.12Z" transform="translate(-1474.95 -1131.68)"/><path class="cls-3" d="M1559.92,1257.55c0-2.05,3.48,1.39,6,1.06s5.74-4.69,5.74-4.69a56.91,56.91,0,0,0,8.23,2.9c3.12.66,7.91,1.11,8.23,3.58l.11.87a1.61,1.61,0,0,1-1.39,1.8l-24.69,3.16a1.61,1.61,0,0,1-1.81-1.45C1560.19,1262.75,1559.91,1259.36,1559.92,1257.55Z" transform="translate(-1474.95 -1131.68)"/><rect class="cls-8" y="101.25" width="60.37" height="8.62" rx="4.31" ry="4.31"/><path class="cls-9" d="M4.81,109.87H55.57a0,0,0,0,1,0,0v44.5a2.1,2.1,0,0,1-2.1,2.1H6.91a2.1,2.1,0,0,1-2.1-2.1v-44.5A0,0,0,0,1,4.81,109.87Z"/></svg>