<svg width="199" height="151" viewBox="0 0 199 151" fill="none" xmlns="http://www.w3.org/2000/svg">
<g clip-path="url(#clip0)">
<path d="M157.604 95.7197L145.081 150.076L150.377 150.067L162.92 96.2367L157.604 95.7197Z" fill="#DDDEE1"/>
<path d="M180.437 95.7197L193 150.076H198.033L185.88 95.7197H180.437Z" fill="#DDDEE1"/>
<path d="M149.148 54.8911L156.278 92.3155H164.383L156.765 54.8911H149.148Z" fill="#DDDEE1"/>
<path d="M24.9849 95.7197L14.7729 150.076H19.9716L30.642 95.7197H24.9849Z" fill="#DDDEE1"/>
<path d="M46.4623 95.7197L58.1373 149.784H63.2774L52.0023 95.7197H46.4623Z" fill="#DDDEE1"/>
<path d="M16.5383 54.8911L23.6682 92.3155H31.7636L24.1559 54.8911H16.5383Z" fill="#DDDEE1"/>
<path d="M0.503464 51.4971L1.95676 58.2953H164.617L162.725 51.4971H0.503464Z" fill="#ECECEC"/>
<path d="M3.6051 64.7036L5.32175 71.5116H166.889L165.417 64.7036H3.6051Z" fill="#ECECEC"/>
<path d="M6.81404 78.3877L8.41362 85.1957H169.484L167.953 78.3877H6.81404Z" fill="#ECECEC"/>
<path d="M19.123 92.3159H192.805V99.1239H19.123V92.3159Z" fill="#ECECEC"/>
<path d="M105.588 130.491C105.12 131.027 105.062 131.622 105.296 132.266V132.276C105.725 133.456 107.139 134.782 108.778 136.099C108.992 136.265 109.178 136.421 109.334 136.567C109.373 136.606 109.421 136.645 109.46 136.684C109.49 136.714 109.529 136.743 109.558 136.772C111.089 138.186 110.514 138.508 113.264 141.376C116.405 144.643 118.561 144.702 119.175 144.399C119.692 144.146 118.639 142.41 117.468 140.469C117.41 140.371 117.351 140.283 117.302 140.186C117.146 139.923 116.99 139.669 116.834 139.406C115.459 137.065 115.81 135.963 116.142 132.481C116.405 129.652 120.55 116.651 120.55 116.651L114.532 115.617C114.532 115.617 112.718 125.965 110.728 127.555C109.665 128.404 108.466 128.413 107.442 129.047C107.373 129.086 107.295 129.135 107.227 129.184C106.651 129.555 106.057 129.954 105.588 130.491Z" fill="#FFAE73"/>
<path d="M105.588 130.491C105.12 131.027 105.062 131.622 105.296 132.266V132.276C105.822 133.456 107.198 134.773 108.788 136.09C108.992 136.265 109.178 136.421 109.343 136.568C109.382 136.607 109.431 136.646 109.47 136.685C109.5 136.714 109.539 136.743 109.568 136.772C111.099 138.187 110.524 138.508 113.274 141.376C116.415 144.643 118.57 144.702 119.185 144.4C119.702 144.146 118.648 142.41 117.478 140.469C116.863 140.245 114.025 139.094 111.879 136.343C110.055 134.022 108.827 131.057 107.578 129.243C107.442 129.213 107.363 129.204 107.227 129.174C106.651 129.555 106.057 129.955 105.588 130.491Z" fill="#1E3865"/>
<path d="M154.083 126.736C154.454 128.589 157.097 128.287 160.062 127.555C163.017 126.833 162.315 127.692 166.519 127.224C170.723 126.755 172 125.185 172.127 124.561C172.244 124.005 170.167 123.81 167.933 123.556C167.65 123.527 167.367 123.488 167.085 123.459C164.568 123.147 162.725 121.518 160.433 120.182C158.267 118.914 155.029 113.764 155.029 113.764L149.255 114.222C149.255 114.222 152.279 118.826 153.459 120.825C154.151 122.005 154.112 123.556 154.025 124.756C153.995 125.409 153.956 126.082 154.083 126.736Z" fill="#FFAE73"/>
<path d="M160.062 127.555C163.017 126.833 162.315 127.692 166.519 127.223C170.723 126.755 172 125.185 172.127 124.561C172.244 124.005 170.167 123.81 167.933 123.556L167.914 123.595C167.914 123.595 165.387 125.38 161.886 125.468C159.028 125.536 156.005 124.717 154.034 124.756C153.986 125.409 153.947 126.073 154.083 126.726C154.454 128.589 157.107 128.277 160.062 127.555Z" fill="#1E3865"/>
<path d="M131.972 89.8379L126.578 104.351L119.536 123.302C119.536 123.302 117.624 123.488 115.791 122.961C114.103 122.473 112.172 121.196 112.172 121.196C112.172 121.196 114.123 100.85 117.78 89.1649C118.717 86.1706 119.76 83.7419 120.921 82.3764C126.568 75.6952 131.972 89.8379 131.972 89.8379Z" fill="#7191EA"/>
<path d="M126.49 66.7806C123.418 65.7857 115.41 66.7611 106.72 68.3412C104.32 68.7801 101.902 67.6779 100.634 65.5907L78.7661 63.8838C78.7661 63.8838 71.5484 79.8894 75.4986 90.0819C76.0838 91.5839 77.3518 92.5202 79.322 92.5495C79.322 92.5495 92.5381 92.569 96.7614 92.569C107.637 92.569 119.78 85.088 121.35 84.7759C123.925 84.259 124.949 89.3991 127.524 94.8026C130.099 100.206 151.693 118.709 151.693 118.709C151.693 118.709 155.01 118.738 156.385 118.231C157.858 117.675 158.394 116.963 158.394 116.963C158.394 116.963 134.459 69.3555 126.49 66.7806Z" fill="#8AA7F9"/>
<path d="M100.497 35.4716C92.7136 39.7632 76.9129 48.6487 76.8251 48.5902C76.8251 48.5902 71.0217 50.775 67.725 48.5902C62.2338 44.9423 59.2882 35.1303 69.3344 26.6837C74.3379 22.4701 77.898 21.446 78.4442 14.716C78.7368 11.0487 83.7696 -1.07497 92.1089 0.153982C92.7819 0.251518 93.4549 0.300286 94.1279 0.280778C95.0935 0.251518 96.6833 0.397821 98.3024 1.36342C102.994 4.1627 112.172 33.8135 100.497 35.4716Z" fill="#10294C"/>
<path d="M93.9719 31.8237C94.0109 31.8432 90.1387 33.1697 87.554 32.0188C85.1254 30.9459 83.282 26.9469 83.3112 26.9372C84.4134 26.8884 85.6326 25.9228 86.5689 19.5732L87.0371 19.7391L94.957 22.5871C94.957 22.5871 94.3815 25.1328 94.0109 27.5517C93.7085 29.5902 93.5427 31.5409 93.9719 31.8237Z" fill="#FFAE73"/>
<path d="M94.9667 22.5971C94.9667 22.5971 94.6546 23.9723 94.1864 26.5277C89.6413 25.7084 87.6808 22.2069 87.0468 19.749L94.9667 22.5971Z" fill="#F9924F"/>
<path d="M96.1469 25.123C96.1469 25.123 85.3107 23.6697 86.3153 16.93C87.3297 10.2 86.6079 5.46953 93.572 6.11326C100.536 6.757 101.492 9.52701 101.697 11.8581C101.911 14.1892 98.9852 25.3278 96.1469 25.123Z" fill="#FFAE73"/>
<path d="M101.307 8.17145C101.307 8.17145 94.3718 14.1504 89.651 14.6283C84.9303 15.1062 83.1454 13.5944 83.1454 13.5944C83.1454 13.5944 85.9252 11.2828 87.6028 7.55698C88.1002 6.45482 89.1341 5.7038 90.3338 5.59651C93.6988 5.31366 100.087 5.18686 101.307 8.17145Z" fill="#10294C"/>
<path d="M96.9662 7.63477C96.9662 7.63477 99.2876 9.87809 100.019 11.5459C100.721 13.1553 100.936 16.9982 100.37 18.5197C100.37 18.5197 103.989 11.4874 101.941 8.07368C99.7752 4.44535 96.9662 7.63477 96.9662 7.63477Z" fill="#1E3865"/>
<path d="M103.101 47.7901C102.77 69.7259 103.013 65.1417 100.614 67.229C100.039 67.7264 98.4097 68.0288 96.2737 68.1653C89.5437 68.614 77.7224 67.5021 77.2738 66.2634C75.723 61.9621 76.8153 60.6258 75.5279 54.0422C75.3913 53.3399 75.2255 52.5791 75.0304 51.7598C73.9478 47.2342 72.9042 45.7029 76.7276 38.4365C80.1998 31.8528 83.8087 26.5079 84.1305 26.7029C93.2891 32.1454 94.0304 27.571 94.0304 27.571C94.0304 27.571 103.257 37.0905 103.101 47.7901Z" fill="#25468F"/>
<path d="M126.578 104.351L119.536 123.303C119.536 123.303 117.624 123.488 115.791 122.961C114.103 122.473 112.172 121.196 112.172 121.196C112.172 121.196 114.123 100.85 117.78 89.165L126.578 104.351Z" fill="#8AA7F9"/>
<path d="M94.0206 27.5615C94.0206 27.5615 103.452 29.1611 104.554 33.2186C105.657 37.2761 109.304 61.9136 109.304 61.9136C109.304 61.9136 106.642 64.508 104.428 62.294C102.214 60.0799 97.4636 39.2463 97.4636 39.2463L94.0206 27.5615Z" fill="#25468F"/>
<path d="M96.2639 68.1656C89.534 68.6142 77.7127 67.5023 77.264 66.2636C75.7132 61.9623 76.8056 60.6261 75.5181 54.0424L78.7661 44.9033C78.7661 44.9033 78.2296 55.0763 81.2337 57.7488C84.228 60.4212 93.5134 62.9181 94.9765 65.1517C95.669 66.2246 96.1274 67.2975 96.2639 68.1656Z" fill="#102C52"/>
<path d="M88.5586 63.8839C88.5586 63.8839 95.1911 62.4111 96.264 62.9963C97.3368 63.5816 99.9508 65.7273 100.282 66.4784C100.614 67.2294 97.9026 65.9127 97.015 65.6786C96.4395 65.5225 94.9375 66.0492 94.1962 66.293C91.0653 67.3367 89.1439 66.8002 89.1439 66.8002L88.5586 63.8839Z" fill="#FFAE73"/>
<path d="M84.111 26.6934C84.111 26.6934 75.1962 27.2396 72.1141 31.5409C67.7738 37.5978 59.1614 63.4058 64.0967 66.8488C69.6562 70.7209 89.3974 67.8631 89.3974 67.8631C89.3974 67.8631 90.0509 64.7908 89.1438 63.3082C88.227 61.8257 73.3723 59.4263 72.6896 58.7338C72.0068 58.0511 81.263 45.3617 81.263 43.3037C81.263 41.2457 84.111 26.6934 84.111 26.6934Z" fill="#25468F"/>
<path d="M96.5858 64.8398C96.5858 64.8398 97.9806 66.6345 98.4292 66.8491C98.8877 67.0636 99.1803 67.0051 99.1803 67.0051L98.2439 65.3178L96.5858 64.8398Z" fill="#FFAE73"/>
<path d="M96.264 62.9961L100.302 64.9566C100.302 64.9566 100.126 65.2394 99.6289 65.2199C99.1315 65.2004 97.8733 64.742 97.8733 64.742L96.264 62.9961Z" fill="#FFAE73"/>
<path d="M130.782 67.6099H88.5586V68.5462H130.411L130.782 67.6099Z" fill="#FF912B"/>
<path d="M98.4292 68.5461H130.411L140.028 44.6206H108.105L98.4292 68.5461Z" fill="#FF912B"/>
<path d="M122.335 56.5787C122.579 55.7399 122.091 55.0571 121.253 55.0571C120.414 55.0571 119.536 55.7399 119.292 56.5787C119.048 57.4175 119.536 58.1002 120.375 58.1002C121.214 58.1002 122.101 57.4272 122.335 56.5787Z" fill="white"/>
</g>
<defs>
<clipPath id="clip0">
<rect width="197.529" height="150" fill="white" transform="matrix(-1 0 0 1 198.033 0.0761719)"/>
</clipPath>
</defs>
</svg>
