<svg width="64" height="151" viewBox="0 0 64 151" fill="none" xmlns="http://www.w3.org/2000/svg">
<path d="M49.4843 29.2049C43.7943 29.8301 36.7265 29.6589 31.0365 29.0258C28.5957 22.4398 30.3596 15.3482 30.8454 8.34019L43.2209 7.96191L49.4843 29.2049Z" fill="#263238"/>
<path d="M45.9326 7.16151C45.9445 6.28152 45.2756 5.5409 44.3996 5.45331L36.4439 1.6865C33.5571 1.40379 30.6065 6.53636 30.4513 9.43114C30.2761 12.6485 30.6424 16.5188 31.0445 18.9158C31.8489 23.7299 35.0901 23.8652 35.0901 23.8652L34.7118 40.2664L45.3074 31.7532L45.9326 7.16151Z" fill="#FFBE9D"/>
<path d="M32.5457 13.7118C32.5377 14.0383 32.8045 14.3171 33.147 14.329C33.4854 14.3449 33.7721 14.0941 33.7801 13.7676C33.788 13.4411 33.5212 13.1623 33.1788 13.1464C32.8404 13.1345 32.5537 13.3853 32.5457 13.7118Z" fill="#263238"/>
<path d="M31.3272 11.637C31.3949 11.6968 31.8807 11.6251 32.5297 11.7764C33.1788 11.9237 33.6207 12.2104 33.7004 12.1865C33.7362 12.1746 33.6765 12.083 33.4814 11.9556C33.2903 11.8282 32.9558 11.6689 32.5536 11.5773C32.1515 11.4857 31.7971 11.4818 31.59 11.5176C31.371 11.5494 31.2914 11.6092 31.3272 11.637Z" fill="#263238"/>
<path d="M38.5145 13.2621C38.5065 13.5886 38.7733 13.8674 39.1157 13.8793C39.4542 13.8952 39.7409 13.6444 39.7488 13.3179C39.7568 12.9914 39.49 12.7126 39.1476 12.6967C38.8051 12.6848 38.5224 12.9356 38.5145 13.2621Z" fill="#263238"/>
<path d="M37.8853 12.0869C37.9808 12.1108 38.4069 11.7763 39.1037 11.5852C39.7966 11.3861 40.3739 11.4379 40.4336 11.3702C40.4655 11.3383 40.354 11.2786 40.1031 11.2547C39.8523 11.2269 39.4501 11.2468 39.0201 11.3702C38.5861 11.4936 38.2516 11.6808 38.0724 11.8281C37.8853 11.9754 37.8415 12.075 37.8853 12.0869Z" fill="#263238"/>
<path d="M35.4882 16.4948C35.4922 16.455 35.0781 16.3873 34.4052 16.3077C34.234 16.2917 34.0747 16.2599 34.0428 16.1444C34.003 16.021 34.0707 15.8378 34.1503 15.6387C34.3056 15.2246 34.4689 14.7946 34.6441 14.3407C35.325 12.4931 35.8187 10.972 35.7431 10.9481C35.6674 10.9203 35.0542 12.3975 34.3733 14.2451C34.2101 14.699 34.0508 15.137 33.9035 15.5511C33.8398 15.7462 33.7323 15.9652 33.8199 16.2201C33.8676 16.3475 33.9911 16.4391 34.1026 16.4669C34.2101 16.4988 34.3056 16.4988 34.3932 16.5028C35.0662 16.5346 35.4843 16.5346 35.4882 16.4948Z" fill="#263238"/>
<path d="M35.09 23.8653C35.09 23.8653 38.3352 24.0963 41.5326 22.1372C41.5326 22.1372 39.9956 25.7288 35.1657 25.3187L35.09 23.8653Z" fill="#EB996E"/>
<path d="M35.6117 18.1115C35.9382 17.6138 36.4319 17.2793 36.8819 17.2514C37.1925 17.2315 37.4871 17.3669 37.6344 17.6616C37.7818 17.9562 37.7579 18.4181 37.5389 18.7685C37.292 19.1627 36.866 19.326 36.5355 19.2662C36.205 19.2065 35.9422 18.9716 35.6953 18.7327C35.6276 18.665 35.5599 18.5973 35.5241 18.4977C35.4882 18.3942 35.5002 18.2509 35.5719 18.1473" fill="#EB996E"/>
<path d="M37.4512 16.941C37.3437 16.937 37.3477 17.6577 36.7345 18.1753C36.1213 18.693 35.3528 18.6213 35.3449 18.7209C35.3369 18.7647 35.5161 18.8602 35.8426 18.8642C36.1611 18.8722 36.627 18.7647 37.0013 18.4501C37.3756 18.1316 37.5349 17.7135 37.5548 17.4148C37.5826 17.1122 37.499 16.937 37.4512 16.941Z" fill="#263238"/>
<path d="M37.3119 9.18427C37.3955 9.35549 38.0485 9.2002 38.8329 9.20816C39.6213 9.2002 40.2704 9.35947 40.354 9.18825C40.3898 9.10463 40.2624 8.94934 39.9917 8.80202C39.7209 8.65469 39.3028 8.53523 38.8329 8.53125C38.3631 8.53125 37.941 8.6507 37.6742 8.79803C37.4035 8.94138 37.2761 9.10065 37.3119 9.18427Z" fill="#263238"/>
<path d="M31.1082 10.1717C31.2555 10.319 31.8249 10.1558 32.5058 10.1399C33.1907 10.104 33.772 10.2275 33.9034 10.0642C33.9592 9.98855 33.8676 9.83724 33.6128 9.69787C33.3619 9.55851 32.9438 9.44702 32.47 9.46294C32.0001 9.47887 31.594 9.62222 31.3591 9.78149C31.1202 9.94475 31.0405 10.1 31.1082 10.1717Z" fill="#263238"/>
<path d="M50.7107 19.1347C50.3205 16.9925 49.114 10.1239 47.2466 6.5243C45.3791 2.92872 43.209 1.4873 41.0907 0.941786C38.9723 0.396277 36.639 0.870116 35.6953 1.73417C34.7516 2.59823 34.8631 5.27799 34.8631 5.27799C34.8631 5.27799 40.3182 6.4805 42.0622 9.36732C44.0691 12.6842 44.5668 14.3605 44.5668 14.3605L45.2238 16.1802C45.2238 16.1802 45.618 25.7047 45.4189 27.4567L51.5031 28.9579C51.0094 26.8635 51.097 21.277 50.7107 19.1347Z" fill="#263238"/>
<path d="M35.0581 5.42955C35.0581 5.42955 32.1395 5.14286 31.0962 8.44777C30.6264 9.94095 30.5149 14.305 30.5149 14.305C30.5149 14.305 29.838 10.8369 29.9733 8.88577C30.1087 6.93468 31.0564 4.46197 32.5376 3.08028C33.9751 1.7384 35.1935 1.10131 37.7936 1.23271C37.7936 1.23271 36.5871 1.66275 35.9341 2.65422C35.6076 3.15195 35.4683 3.57402 35.0581 5.42955Z" fill="#263238"/>
<path d="M44.5309 14.6114C44.5747 13.5443 45.7295 12.8196 46.6572 13.3452C47.1669 13.6319 47.5611 14.2212 47.5292 15.352C47.4376 18.3743 44.4194 17.6575 44.4194 17.5699C44.4154 17.5182 44.4792 15.8617 44.5309 14.6114Z" fill="#FFBE9D"/>
<path d="M45.3752 16.4547C45.3871 16.4467 45.4269 16.4945 45.5145 16.5383C45.5981 16.5821 45.7494 16.614 45.9087 16.5582C46.2312 16.4507 46.5179 15.953 46.5458 15.4075C46.5617 15.1327 46.5139 14.8699 46.4224 14.6509C46.3387 14.4279 46.1994 14.2687 46.0401 14.2328C45.8808 14.189 45.7654 14.2846 45.7256 14.3682C45.6818 14.4518 45.7017 14.5116 45.6818 14.5155C45.6738 14.5235 45.618 14.4638 45.6459 14.3403C45.6618 14.2806 45.6977 14.2089 45.7694 14.1532C45.845 14.0974 45.9525 14.0696 46.064 14.0855C46.295 14.1094 46.498 14.3284 46.6015 14.5713C46.713 14.8142 46.7768 15.1088 46.7568 15.4194C46.717 16.0286 46.3905 16.5901 45.9485 16.7016C45.7335 16.7493 45.5583 16.6816 45.4707 16.606C45.3791 16.5303 45.3672 16.4626 45.3752 16.4547Z" fill="#EB996E"/>
<path d="M38.1918 17.124C38.1361 17.1439 38.0087 16.8771 37.6941 16.7457C37.3835 16.6024 37.1008 16.686 37.0769 16.6342C37.065 16.6103 37.1287 16.5506 37.2561 16.5108C37.3835 16.471 37.5826 16.475 37.7737 16.5586C37.9649 16.6422 38.1003 16.7895 38.16 16.909C38.2237 17.0284 38.2197 17.116 38.1918 17.124Z" fill="#EB996E"/>
<path d="M38.5144 17.1239C38.4586 17.1398 38.3551 16.9487 38.1839 16.7536C38.0167 16.5545 37.8415 16.4231 37.8654 16.3674C37.8853 16.3156 38.1401 16.3793 38.3392 16.6182C38.5423 16.8532 38.5701 17.112 38.5144 17.1239Z" fill="#EB996E"/>
<path d="M31.9284 13.743C31.9085 13.7948 31.793 13.7988 31.6736 13.751C31.5541 13.7032 31.4745 13.6196 31.4984 13.5678C31.5183 13.5161 31.6338 13.5121 31.7532 13.5598C31.8687 13.6076 31.9483 13.6913 31.9284 13.743Z" fill="#EB996E"/>
<path d="M43.5873 132.509L44.4076 141.922L42.9104 149.551C42.8029 150.101 43.1812 150.627 43.7387 150.698C44.0492 150.738 44.3598 150.627 44.5709 150.396C45.9207 148.922 50.8621 143.483 50.7626 142.798C50.6471 142.006 50.5555 132.812 50.5555 132.812L43.5873 132.509Z" fill="#61CFFF"/>
<path d="M43.7385 150.698L50.7226 142.161L50.7465 142.559C50.7704 142.906 50.6709 143.248 50.4638 143.523C49.9103 144.264 48.3375 146.278 44.5986 150.392C44.3836 150.63 44.0571 150.746 43.7385 150.698Z" fill="#263238"/>
<path opacity="0.6" d="M48.5924 139.242C48.3655 139.421 48.3137 139.784 48.4809 140.015C48.6482 140.246 49.0185 140.305 49.2454 140.13C49.4724 139.955 49.552 139.521 49.3569 139.31C49.1618 139.099 48.7278 139.051 48.5486 139.278" fill="white"/>
<path d="M45.6299 146.441C45.5781 146.469 45.3353 145.992 44.7579 145.761C44.1885 145.514 43.6748 145.681 43.6589 145.621C43.6509 145.597 43.7624 145.518 43.9814 145.474C44.1965 145.426 44.519 145.438 44.8375 145.569C45.1561 145.701 45.387 145.92 45.5105 146.107C45.6299 146.29 45.6498 146.43 45.6299 146.441Z" fill="#263238"/>
<path d="M45.0366 147.743C44.9928 147.787 44.6703 147.5 44.1766 147.393C43.6828 147.273 43.2687 147.393 43.2488 147.333C43.217 147.285 43.6589 147.058 44.2244 147.19C44.7898 147.317 45.0844 147.715 45.0366 147.743Z" fill="#263238"/>
<path d="M46.7767 144.741C46.7369 144.789 46.2431 144.343 45.4826 144.108C44.73 143.861 44.069 143.933 44.0651 143.873C44.0451 143.825 44.738 143.646 45.5463 143.913C46.3586 144.168 46.8205 144.713 46.7767 144.741Z" fill="#263238"/>
<path d="M46.7648 141.858C46.7449 141.918 46.2073 141.731 45.5304 141.751C44.8495 141.759 44.3239 141.966 44.3 141.91C44.2721 141.866 44.7938 141.556 45.5264 141.544C46.2551 141.528 46.7926 141.814 46.7648 141.858Z" fill="#263238"/>
<path d="M46.5935 139.091C46.5696 139.147 46.0241 138.868 45.3114 138.944C44.5946 139.008 44.1168 139.39 44.081 139.338C44.0651 139.318 44.1606 139.195 44.3677 139.055C44.5747 138.916 44.9052 138.777 45.2875 138.737C45.6737 138.701 46.0241 138.773 46.2551 138.868C46.49 138.964 46.6055 139.071 46.5935 139.091Z" fill="#263238"/>
<path d="M45.2915 138.419C45.2795 138.419 45.2516 138.295 45.2556 138.064C45.2636 137.833 45.3074 137.495 45.4786 137.112C45.5702 136.929 45.6618 136.698 45.9166 136.559C46.044 136.487 46.2391 136.499 46.3586 136.619C46.478 136.734 46.5218 136.886 46.5338 137.037C46.5617 137.634 46.0838 138.247 45.4189 138.379C44.746 138.498 44.1089 138.148 43.8102 137.65C43.7425 137.519 43.6908 137.359 43.7545 137.196C43.8142 137.029 44.0053 136.953 44.1407 136.969C44.4234 136.993 44.6106 137.144 44.7818 137.252C45.1242 137.491 45.3432 137.754 45.4706 137.945C45.602 138.136 45.6458 138.255 45.6379 138.259C45.606 138.287 45.3711 137.813 44.7021 137.375C44.5349 137.276 44.3398 137.148 44.1367 137.14C44.0372 137.136 43.9576 137.18 43.9257 137.264C43.8938 137.343 43.9217 137.459 43.9814 137.562C44.2363 137.973 44.8176 138.287 45.383 138.18C45.9485 138.076 46.3665 137.539 46.3466 137.057C46.3387 136.941 46.3028 136.826 46.2351 136.762C46.1714 136.698 46.0759 136.686 45.9923 136.726C45.8131 136.81 45.7016 137.017 45.614 137.188C45.2596 137.893 45.3353 138.426 45.2915 138.419Z" fill="#263238"/>
<path d="M35.4882 132.087L35.6275 139.895C35.6275 139.895 27.7396 142.659 27.6241 144.104L42.7709 144.379L43.0536 132.206L35.4882 132.087Z" fill="#61CFFF"/>
<path d="M40.3221 139.322C40.6127 139.405 40.8118 139.74 40.7362 140.035C40.6645 140.329 40.326 140.532 40.0314 140.453C39.7367 140.373 39.4899 139.979 39.5974 139.696C39.7049 139.409 40.111 139.194 40.3778 139.342" fill="#E0E0E0"/>
<path d="M42.767 144.375L42.7471 143.148L28.2334 143.344C28.2334 143.344 27.5525 143.626 27.6201 144.1L42.767 144.375Z" fill="#263238"/>
<path d="M57.6111 68.2031C57.6111 68.2031 57.8899 75.1315 57.7545 78.3966C57.6191 81.6617 51.4234 105.823 51.4234 105.823L51.7459 137.773L42.1139 137.463C42.1139 137.463 39.5138 104.808 39.6492 104.402C39.7845 103.992 39.6452 95.9644 39.6452 95.9644L42.0502 77.867V68.6133L57.6111 68.2031Z" fill="#455A64"/>
<path d="M24.9364 67.0762C24.9364 67.0762 24.5621 74.1917 24.8249 78.2731C25.0877 82.3544 30.8056 104.673 30.8056 104.673L34.5963 137.463H43.0856L42.0503 78.4084V68.6092L24.9364 67.0762Z" fill="#455A64"/>
<path opacity="0.3" d="M25.1833 70.9748C28.9342 73.2604 33.5292 73.6984 37.9211 73.5112C42.3091 73.3241 46.6811 72.5755 51.0731 72.7308C53.2989 72.8104 55.8314 73.0135 57.4281 71.4606C46.5657 71.0385 36.0537 70.9469 25.1833 70.9748Z" fill="black"/>
<path d="M42.1259 76.4497C42.1299 76.4497 42.118 76.5015 42.0941 76.605C42.0662 76.7165 42.0264 76.8638 41.9786 77.055C41.8751 77.4492 41.7078 78.0265 41.5366 78.7831C41.1703 80.2882 40.7163 82.4822 40.358 85.2256C39.6094 90.7046 39.2789 98.3816 39.9917 106.803C40.5849 115.233 41.3694 122.846 41.9149 128.357C42.1896 131.104 42.4086 133.33 42.5639 134.883C42.6356 135.643 42.6913 136.241 42.7272 136.659C42.7431 136.854 42.755 137.005 42.763 137.121C42.771 137.224 42.771 137.28 42.767 137.28C42.763 137.28 42.755 137.228 42.7391 137.125C42.7232 137.009 42.7073 136.858 42.6794 136.663C42.6316 136.245 42.5639 135.651 42.4763 134.891C42.3051 133.342 42.0622 131.116 41.7636 128.373C41.1782 122.866 40.3739 115.253 39.7766 106.819C39.0639 98.3896 39.4183 90.6927 40.2067 85.2097C40.5849 82.4623 41.0628 80.2683 41.453 78.7671C41.6362 78.0146 41.8153 77.4412 41.9348 77.047C41.9945 76.8598 42.0383 76.7125 42.0702 76.605C42.106 76.5015 42.1219 76.4497 42.1259 76.4497Z" fill="#263238"/>
<path d="M41.1105 80.3238C41.0787 80.3676 40.3261 79.9017 39.5218 79.165C38.7135 78.4324 38.1799 77.7197 38.2237 77.6878C38.2675 77.648 38.8648 78.289 39.6611 79.0137C40.4535 79.7384 41.1464 80.272 41.1105 80.3238Z" fill="#263238"/>
<path d="M29.0018 29.6868L33.5491 27.4689C37.5866 28.6754 41.234 29.0378 43.193 25.7647C43.193 25.7647 48.9866 24.8329 50.7187 25.7647C52.4508 26.6964 52.3194 38.2915 52.3194 38.2915L53.8564 53.1756C53.8564 53.1756 58.4275 62.2501 57.6749 71.7229L24.8607 70.9464C24.8607 70.9464 24.5024 65.9253 26.0593 61.617C27.6162 57.3047 27.3932 53.4861 27.3932 53.4861L27.1383 40.9991L29.0018 29.6868Z" fill="#61CFFF"/>
<path opacity="0.3" d="M30.9808 56.9622C33.127 55.4053 35.0144 53.49 36.5394 51.316C37.1805 50.4041 37.7618 49.4405 38.5184 48.6163C39.2709 47.7921 40.2345 47.1072 41.3375 46.928C43.0656 46.6493 44.7141 47.6368 46.1834 48.5844C47.8079 49.6317 49.4325 50.6829 51.0571 51.7301C51.4712 51.9969 51.9092 52.2716 52.403 52.3035C52.8967 52.3313 53.6055 52.3313 53.6493 51.8416C52.8808 51.4553 50.9576 50.2011 49.8427 49.337C48.1743 48.0509 46.4024 47.143 44.734 45.8529C43.9615 45.2556 43.1333 44.5708 42.9621 43.6111C42.9023 43.2727 42.9183 42.8984 42.7072 42.6276C42.4285 42.2772 41.9029 42.2852 41.4569 42.325C40.577 42.4047 39.6611 42.4962 38.9205 42.9741C37.8972 43.635 37.4353 44.8694 36.9854 46.0002C35.4524 49.8546 33.2902 53.4582 30.6144 56.6277" fill="black"/>
<path d="M29.0018 29.6865C29.0018 29.6865 24.2037 30.6501 23.268 37.7139C22.3362 44.7776 19.6206 54.0274 21.2173 56.962C21.6673 57.7862 23.1883 59.3949 24.0643 59.7174C26.6207 60.6571 29.3283 58.5428 31.0524 56.4324L35.9222 49.1616L36.9455 47.2384L31.7692 43.8857L28.6713 47.1269L29.0018 29.6865Z" fill="#61CFFF"/>
<path d="M49.767 25.4741C49.767 25.4741 54.5134 25.948 57.5037 30.7222C61.5572 37.1886 63.8587 48.3019 63.2893 51.6427C62.7597 54.7525 57.4281 56.6797 56.0543 55.8315C54.7523 55.0272 41.5207 43.7786 41.5207 43.7786L45.8489 39.0521L53.3427 42.9623L50.9377 35.2137L49.767 25.4741Z" fill="#61CFFF"/>
<path d="M30.6065 38.96C30.6781 38.9639 30.5706 40.5009 30.3198 42.3803C30.1964 43.2802 30.0888 44.0925 29.9973 44.7814C29.9097 45.3946 29.8579 45.7729 29.83 45.7729C29.7584 45.7689 29.8659 44.2319 30.1167 42.3525C30.2402 41.4526 30.3477 40.6403 30.4392 39.9514C30.5268 39.3382 30.5746 38.96 30.6065 38.96Z" fill="#263238"/>
<path d="M51.5787 37.2682C51.5827 37.2682 51.5947 37.3001 51.6146 37.3638C51.6385 37.4355 51.6703 37.527 51.7101 37.6465C51.7938 37.9053 51.9132 38.2756 52.0685 38.7534C52.3791 39.733 52.829 41.1505 53.3984 42.9463L53.4383 43.0777L53.3148 43.014C51.2881 41.9628 48.7477 40.6488 45.8091 39.1277L45.9086 39.1118C44.5986 40.5492 43.1373 42.1499 41.5884 43.8462L41.5804 43.7108C45.0685 46.7688 49.0145 50.241 53.2392 53.8286C53.721 54.2268 54.1988 54.625 54.6726 55.0232C54.9155 55.2103 55.1504 55.4134 55.3973 55.5886C55.5207 55.6762 55.6402 55.7717 55.7636 55.8195C55.895 55.8673 56.0344 55.9031 56.1817 55.9151C56.7671 55.9708 57.3683 55.8673 57.9377 55.72C58.5111 55.5726 59.0646 55.3616 59.5981 55.1187C60.6533 54.625 61.6328 53.9759 62.3655 53.1278C62.7278 52.7057 63.0185 52.2279 63.1658 51.7063C63.3132 51.1926 63.3172 50.6352 63.3092 50.1016C63.2335 47.9435 62.8354 45.9127 62.4372 44.0293C62.0231 42.1459 61.5492 40.4138 61.0555 38.853C60.0759 35.7233 59.0048 33.2864 58.089 31.6976C57.6311 30.9053 57.225 30.3199 56.9184 29.9496C56.775 29.7545 56.6396 29.6311 56.564 29.5315C56.4843 29.4399 56.4445 29.3882 56.4445 29.3882C56.4445 29.3882 56.6357 29.5554 56.9542 29.9218C57.2727 30.2841 57.6908 30.8694 58.1647 31.6578C59.1044 33.2386 60.1994 35.6795 61.1988 38.8092C61.7005 40.374 62.1863 42.1061 62.6084 43.9935C63.0185 45.8809 63.4207 47.9116 63.5043 50.0976C63.5123 50.6432 63.5162 51.2046 63.361 51.762C63.2017 52.3155 62.8951 52.8172 62.5208 53.2552C61.7642 54.1352 60.7648 54.7922 59.6897 55.3019C59.1482 55.5488 58.5828 55.7638 57.9974 55.9151C57.4121 56.0664 56.7989 56.1779 56.1658 56.1182C56.0065 56.1062 55.8512 56.0664 55.6959 56.0106C55.5327 55.9469 55.4132 55.8474 55.2858 55.7558C55.031 55.5726 54.8 55.3736 54.5532 55.1824C54.0793 54.7882 53.5975 54.39 53.1157 53.9879C48.887 50.3963 44.949 46.9201 41.4649 43.8502L41.3932 43.7865L41.457 43.7148C43.0099 42.0225 44.4752 40.4298 45.7932 38.9963L45.837 38.9485L45.8927 38.9764C48.8233 40.5174 51.3558 41.8473 53.3745 42.9065L53.2949 42.9742C52.7494 41.1744 52.3154 39.7489 52.0167 38.7654C51.8734 38.2836 51.7619 37.9133 51.6863 37.6505C51.6504 37.531 51.6265 37.4355 51.6066 37.3638C51.5827 37.3041 51.5748 37.2682 51.5787 37.2682Z" fill="#263238"/>
<path d="M58.1487 42.922C58.1129 42.9738 57.1851 42.3009 55.903 41.7394C54.6248 41.166 53.5059 40.9311 53.5218 40.8674C53.5258 40.8435 53.8125 40.8674 54.2664 40.9709C54.7204 41.0745 55.3375 41.2616 55.9866 41.5483C56.6356 41.839 57.1891 42.1695 57.5714 42.4362C57.9536 42.703 58.1646 42.8981 58.1487 42.922Z" fill="#263238"/>
<path d="M26.2862 49.6197C26.2822 49.6157 26.314 49.5799 26.3738 49.5122C26.4415 49.4365 26.533 49.337 26.6485 49.2096C26.8994 48.9388 27.2577 48.5566 27.7196 48.0628C28.6673 47.0634 30.0251 45.622 31.7174 43.8341L31.7572 43.7943L31.805 43.8222C33.3579 44.7459 35.1577 45.8131 37.1366 46.9917L37.2123 47.0355L37.1685 47.1111C36.8022 47.7682 36.408 48.4769 36.0018 49.2056V49.2096L35.9978 49.2136C34.4648 51.4991 32.7686 54.0196 30.9847 56.6755L30.9807 56.6795L30.9767 56.6834C30.2361 57.5873 29.3323 58.4434 28.2691 59.1163C27.413 59.6539 26.4415 60.0561 25.4261 60.06C25.1752 60.068 24.9244 60.0322 24.6775 59.9884C24.4267 59.9286 24.1957 59.8291 23.9807 59.7096C23.5467 59.4747 23.1564 59.1801 22.7941 58.8655C22.0814 58.2284 21.4323 57.5276 21.0063 56.6914C20.9505 56.5879 20.9147 56.4724 20.8709 56.3649C20.843 56.2534 20.8191 56.1379 20.7952 56.0264L20.7236 55.688C20.7076 55.5765 20.7036 55.461 20.6917 55.3495C20.6399 54.8996 20.6479 54.4536 20.6519 54.0156C20.7076 52.2636 20.9664 50.6191 21.2093 49.0861C21.4602 47.5531 21.731 46.1356 21.9738 44.8415C22.4716 42.2533 22.8658 40.1549 23.1126 38.7015C23.2401 37.9769 23.3277 37.4114 23.3874 37.0252C23.4192 36.842 23.4431 36.6987 23.4591 36.5912C23.475 36.4916 23.4869 36.4438 23.4909 36.4438C23.4949 36.4438 23.4909 36.4956 23.479 36.5952C23.467 36.7027 23.4471 36.85 23.4272 37.0332C23.3794 37.4194 23.3038 37.9848 23.1923 38.7135C22.9693 40.1708 22.595 42.2732 22.1172 44.8654C21.8823 46.1635 21.6195 47.581 21.3766 49.114C21.1416 50.643 20.8908 52.2835 20.843 54.0196C20.843 54.4536 20.835 54.8916 20.8868 55.3296C20.8988 55.4371 20.9027 55.5486 20.9187 55.6601L20.9903 55.9826C21.0142 56.0902 21.0341 56.1977 21.062 56.3052C21.1018 56.4047 21.1337 56.5082 21.1894 56.6078C21.5956 57.4002 22.2366 58.097 22.9335 58.7142C23.6422 59.3075 24.4545 59.9207 25.434 59.857C26.3937 59.853 27.3334 59.4667 28.1696 58.9411C29.2088 58.2881 30.1007 57.44 30.8294 56.556L30.8254 56.564C32.6133 53.9121 34.3135 51.3956 35.8545 49.114L35.8505 49.122C36.2566 48.3973 36.6548 47.6885 37.0251 47.0315L37.057 47.151C35.082 45.9644 33.2902 44.8813 31.7452 43.9536L31.8328 43.9416C30.1207 45.7095 28.7469 47.135 27.7873 48.1265C27.3175 48.6083 26.9471 48.9826 26.6883 49.2494C26.5689 49.3688 26.4733 49.4644 26.4016 49.5361C26.326 49.5918 26.2901 49.6197 26.2862 49.6197Z" fill="#263238"/>
<path d="M42.552 51.2922C42.5639 51.3241 42.0702 51.4993 41.3097 51.8577C40.5491 52.212 39.5298 52.7735 38.5025 53.538C37.4791 54.3065 36.6509 55.1228 36.0975 55.7519C35.54 56.381 35.2294 56.7991 35.2015 56.7792C35.1896 56.7712 35.2573 56.6597 35.3847 56.4606C35.5121 56.2616 35.7152 55.9828 35.982 55.6563C36.5155 54.9993 37.3358 54.1512 38.3751 53.3708C39.4143 52.5943 40.4615 52.0488 41.246 51.7223C41.6362 51.559 41.9587 51.4435 42.1897 51.3759C42.4206 51.3082 42.548 51.2803 42.552 51.2922Z" fill="#263238"/>
<path d="M32.2469 44.2443L31.789 41.3375L29.6389 38.9763L29.8977 35.2493C29.8977 35.2493 30.6901 34.9865 30.6901 35.7232C30.6901 36.4558 30.9449 38.2397 30.9449 38.2397L31.582 38.817L31.4785 35.2055L33.103 33.1509C33.103 33.1509 33.7322 33.6765 33.4176 34.5684C33.103 35.4604 32.7885 35.8267 32.7885 35.8267L32.9477 38.0844H33.5092V35.986L35.8863 32.8921C35.8863 32.8921 36.1491 33.1031 35.8863 34.0468C35.6235 34.9905 35.1537 35.8824 35.1537 35.8824L36.0058 39.713L36.7822 40.0793L37.2003 39.4502L38.4068 36.9336C38.4068 36.9336 38.7732 36.8301 38.9842 37.0929C39.1952 37.3557 38.4068 39.4024 38.3551 39.7687C38.3033 40.135 39.5297 42.4962 39.02 43.7027L36.6309 46.8086L32.2469 44.2443Z" fill="#FFBE9D"/>
<path d="M34.2977 29.8423V42.1342H41.2897V30.0374L34.2977 29.8423Z" fill="#263238"/>
<path d="M41.2898 32.4702C41.2898 32.4702 42.4166 32.4702 42.5201 33.3104C42.6237 34.1505 42.6237 34.5169 43.3603 35.357C44.093 36.1972 44.8814 36.9299 45.0406 38.7137L45.2039 39.6136L42.0503 42.9663C42.0503 42.9663 36.8341 42.8628 36.189 42.6517C35.544 42.4407 34.9149 41.9191 34.9149 41.9191L34.1822 39.7171C34.1822 39.7171 34.449 39.2194 34.9188 39.8605C35.3887 40.5015 36.193 41.2382 36.193 41.2382L37.7539 41.3975L38.4866 41.0311L35.5997 39.7729C35.5997 39.7729 33.5013 38.6181 33.5013 38.3553C33.5013 38.0925 33.5929 37.4873 33.5929 37.4873C33.5929 37.4873 33.2385 37.0453 33.5013 36.468C33.7641 35.8906 34.8113 36.468 34.8113 36.468C34.8113 36.468 38.0127 37.6745 38.4826 37.7262C38.9564 37.778 39.6373 37.7262 39.6373 37.7262L34.9666 34.9987C34.9666 34.9987 34.9666 34.4731 35.9103 34.6841C36.854 34.8951 39.6891 35.9941 40.2147 36.1016C40.7403 36.2091 41.2937 35.8388 41.2937 35.8388V32.4702H41.2898Z" fill="#FFBE9D"/>
<path d="M41.2897 32.4701C41.2897 32.4701 41.2977 32.5497 41.2977 32.701C41.3016 32.8603 41.3056 33.0753 41.3096 33.3541C41.3176 33.9314 41.3255 34.7636 41.3375 35.8308V35.8586L41.3176 35.8706C41.1344 35.986 40.9273 36.0776 40.6924 36.1334C40.4615 36.1931 40.1947 36.1652 39.9598 36.0856C39.4819 35.9383 38.9762 35.7591 38.4387 35.5719C37.9012 35.3848 37.3318 35.1857 36.7265 34.9906C36.4239 34.895 36.1133 34.7955 35.7948 34.7318C35.6355 34.7039 35.4722 34.692 35.3209 34.7238C35.1736 34.7517 35.0502 34.8632 35.0422 34.9906L35.0024 34.9229C36.408 35.7392 37.9848 36.655 39.677 37.6385L39.9398 37.7898L39.6372 37.8057C39.239 37.8296 38.8369 37.8535 38.4148 37.7978C37.9927 37.7062 37.6145 37.5628 37.2083 37.4275C36.412 37.1527 35.5957 36.8541 34.7675 36.5475H34.7635L34.7555 36.5435C34.5883 36.4559 34.4011 36.3802 34.214 36.3364C34.0268 36.2926 33.8198 36.2807 33.6884 36.3723C33.5689 36.4599 33.5052 36.6829 33.4973 36.87C33.4893 37.0611 33.557 37.2682 33.6645 37.4155L33.6924 37.4514L33.6884 37.4912C33.6486 37.758 33.6127 38.0367 33.6008 38.3035C33.5689 38.3473 33.7163 38.4627 33.8118 38.5384C33.9193 38.622 34.0348 38.7016 34.1543 38.7813C34.6281 39.0919 35.1338 39.3865 35.6435 39.6732L35.6355 39.6692C36.3244 39.9679 37.053 40.2864 37.7936 40.6129C38.0365 40.7204 38.2794 40.824 38.5223 40.9315L38.7254 41.0191L38.5263 41.1186C38.2794 41.242 38.0365 41.3655 37.7936 41.4849L37.7658 41.4969L37.7339 41.4929C37.2083 41.4411 36.6907 41.3854 36.173 41.3336L36.1372 41.3296L36.1133 41.3058C35.7629 40.9792 35.4284 40.6408 35.1179 40.2784C34.9626 40.1032 34.8232 39.8882 34.6838 39.7449C34.6082 39.6772 34.5246 39.6214 34.4529 39.6254C34.3852 39.6214 34.3056 39.6852 34.2618 39.7529L34.2697 39.6732C34.5166 40.4218 34.7635 41.1545 35.0024 41.8791L34.9705 41.8353C35.2174 42.0344 35.4922 42.2176 35.7709 42.3649C35.9102 42.4366 36.0536 42.5043 36.2009 42.5521C36.3403 42.5919 36.4956 42.6078 36.6548 42.6277C37.284 42.6914 37.9091 42.7233 38.5223 42.7551C39.7487 42.8149 40.9273 42.8467 42.0462 42.8746L41.9825 42.9025C43.1333 41.688 44.1924 40.5691 45.1481 39.5617L45.1282 39.6254C45.0684 39.3029 45.0167 39.0122 44.9689 38.7255V38.7216V38.7176C44.9171 38.1243 44.7857 37.5668 44.5588 37.081C44.3358 36.5953 44.0212 36.1931 43.7146 35.8347C43.404 35.4764 43.0974 35.1538 42.8824 34.7995C42.6594 34.4491 42.5718 34.0668 42.536 33.7363C42.4922 33.4058 42.4962 33.1032 42.325 32.9121C42.1697 32.717 41.9666 32.6294 41.8033 32.5736C41.4768 32.4701 41.2897 32.4781 41.2897 32.4701C41.2897 32.4701 41.4768 32.4462 41.8153 32.5378C41.9825 32.5895 42.1975 32.6732 42.3688 32.8762C42.4484 32.9798 42.5241 33.1072 42.544 33.2625C42.5718 33.4098 42.5838 33.5651 42.6117 33.7284C42.6555 34.0549 42.743 34.4172 42.962 34.7517C43.1731 35.0901 43.4837 35.4087 43.7982 35.767C44.1128 36.1254 44.4393 36.5316 44.6742 37.0293C44.9131 37.527 45.0525 38.1004 45.1083 38.7056V38.6977C45.16 38.9804 45.2158 39.271 45.2755 39.5976L45.2835 39.6334L45.2596 39.6613C44.3079 40.6766 43.2567 41.7995 42.1139 43.0219L42.0861 43.0498H42.0462C40.9234 43.0259 39.7447 42.998 38.5183 42.9423C37.9051 42.9144 37.28 42.8826 36.6389 42.8189C36.4796 42.7989 36.3164 42.783 36.1452 42.7352C35.9859 42.6835 35.8346 42.6158 35.6873 42.5401C35.3926 42.3848 35.1179 42.2017 34.8511 41.9906L34.8312 41.9747L34.8232 41.9468C34.5803 41.2261 34.3374 40.4895 34.0866 39.7449L34.0706 39.7011L34.0905 39.6652C34.1662 39.5418 34.2857 39.4343 34.4529 39.4303C34.6162 39.4263 34.7356 39.5219 34.8312 39.6055C35.0143 39.7927 35.1258 39.9798 35.2811 40.155C35.5837 40.5054 35.9142 40.8399 36.2567 41.1624L36.1969 41.1345C36.7106 41.1863 37.2322 41.2381 37.7578 41.2898L37.7021 41.3018C37.945 41.1783 38.1878 41.0589 38.4347 40.9354L38.4387 41.1226C38.1998 41.0191 37.9569 40.9116 37.71 40.8041C36.9694 40.4815 36.2368 40.163 35.5519 39.8604L35.5479 39.8564L35.5439 39.8524C35.0263 39.5657 34.5206 39.271 34.0388 38.9525C33.9193 38.8729 33.7999 38.7892 33.6844 38.7016C33.6247 38.6578 33.5689 38.6061 33.5132 38.5583C33.4853 38.5264 33.4574 38.4986 33.4296 38.4588C33.4136 38.4309 33.4017 38.395 33.3937 38.3632C33.3858 38.3313 33.3937 38.3234 33.3898 38.2995C33.4057 38.0088 33.4455 37.738 33.4813 37.4633L33.5012 37.5429C33.3539 37.3359 33.2862 37.1049 33.2902 36.866C33.3101 36.6311 33.3499 36.3922 33.565 36.209C33.7959 36.0617 34.0468 36.0975 34.2538 36.1453C34.4648 36.1971 34.66 36.2767 34.8471 36.3723L34.8352 36.3683C35.6634 36.6789 36.4757 36.9775 37.268 37.2562C37.6622 37.3876 38.0644 37.535 38.4387 37.6186C38.8249 37.6704 39.2311 37.6504 39.6173 37.6305L39.5775 37.8018C37.8892 36.8103 36.3164 35.8865 34.9148 35.0623L34.875 35.0384L34.879 34.9946C34.8909 34.7596 35.098 34.6123 35.2771 34.5765C35.4643 34.5367 35.6395 34.5566 35.8107 34.5844C36.1492 34.6521 36.4558 34.7557 36.7624 34.8512C37.3676 35.0503 37.937 35.2574 38.4745 35.4485C39.0121 35.6396 39.5138 35.8268 39.9836 35.9741C40.4455 36.1612 40.9114 35.994 41.2538 35.7909L41.2339 35.8308C41.2459 34.7517 41.2539 33.9115 41.2618 33.3262C41.2658 33.0514 41.2698 32.8404 41.2738 32.6851C41.2857 32.5378 41.2897 32.4661 41.2897 32.4701Z" fill="#EB996E"/>
<path d="M39.0957 39.6099C39.0917 39.6378 38.7573 39.59 38.2357 39.4586C37.714 39.3272 37.0013 39.1082 36.2368 38.8095C35.4723 38.5109 34.7994 38.1963 34.3255 37.9415C33.8517 37.6867 33.5769 37.4995 33.5889 37.4756C33.6048 37.4478 33.9034 37.5911 34.3892 37.8101C34.875 38.0291 35.5519 38.3238 36.3124 38.6184C37.073 38.9131 37.7698 39.152 38.2755 39.3192C38.7851 39.4864 39.0997 39.582 39.0957 39.6099Z" fill="#EB996E"/>
<path d="M39.7408 40.8876C39.7727 40.9354 39.6134 41.0708 39.3785 41.0549C39.1396 41.0429 39.0002 40.8916 39.036 40.8478C39.0679 40.8 39.2152 40.8399 39.3904 40.8478C39.5656 40.8598 39.713 40.8359 39.7408 40.8876Z" fill="#EB996E"/>
<path d="M40.5571 39.4901C40.6089 39.514 40.5013 39.7569 40.2107 39.8366C39.92 39.9162 39.705 39.7609 39.7368 39.7171C39.7607 39.6653 39.9479 39.7012 40.1549 39.6375C40.366 39.5817 40.5093 39.4543 40.5571 39.4901Z" fill="#EB996E"/>
<path d="M41.5246 37.5753C41.5724 37.6071 41.4769 37.7983 41.2419 37.858C41.007 37.9217 40.8318 37.8023 40.8557 37.7505C40.8756 37.6947 41.0269 37.7027 41.1862 37.6549C41.3534 37.6151 41.4769 37.5395 41.5246 37.5753Z" fill="#EB996E"/>
<path d="M42.3608 35.6035C42.3688 35.6592 42.098 35.7429 41.7635 35.8265C41.4291 35.9101 41.1503 35.9619 41.1304 35.9101C41.1105 35.8583 41.3654 35.711 41.7157 35.6274C42.0582 35.5398 42.3528 35.5478 42.3608 35.6035Z" fill="#EB996E"/>
<path d="M45.8927 17.4463C45.3114 15.8257 44.7778 14.1136 44.0969 12.5328C43.9735 12.2501 43.6271 12.1346 43.5116 11.8479C42.6197 9.64197 41.9547 7.30066 40.573 5.3655C39.1873 3.43033 36.8261 1.94511 34.4968 2.43886L35.3648 5.7597C36.5554 7.55152 39.1475 8.1687 40.0036 10.1437C40.5491 11.4019 40.2266 12.8911 40.6965 14.1773C41.011 15.0373 41.6521 15.7421 42.0264 16.5783C42.552 17.749 42.5162 19.0869 42.4724 20.373C42.4166 21.9219 42.3609 23.4748 42.3051 25.0238C42.2772 25.852 42.2653 26.7559 42.763 27.4208C43.5355 28.4561 45.387 28.5118 46.6692 28.3565C47.2306 28.2888 47.8836 28.3326 48.1305 28.2809C48.1305 28.2809 47.5731 24.0044 47.5372 23.7416C47.1112 20.6079 46.9599 20.4248 45.8927 17.4463Z" fill="#263238"/>
<path d="M48.9548 24.6575C48.9468 24.6575 48.9508 24.558 48.9588 24.3748C48.9707 24.1718 48.9906 23.901 49.0145 23.5705C49.0623 22.8737 49.1459 21.8623 49.1777 20.612C49.2056 19.3657 49.1857 17.8685 48.895 16.2479C48.7517 15.4396 48.5247 14.6034 48.1982 13.7712C47.8757 12.939 47.4457 12.1148 46.8882 11.3463C46.3427 10.5738 45.6737 9.92082 44.957 9.3992C44.2363 8.87758 43.4439 8.5232 42.6715 8.23651C41.1225 7.67905 39.6612 7.32069 38.5264 6.75925C37.3836 6.2217 36.5833 5.5448 36.1453 4.99132C35.6993 4.44183 35.5798 4.05958 35.5798 4.05958C35.6037 4.04365 35.7511 4.41396 36.209 4.93956C36.6589 5.46914 37.4553 6.11021 38.5901 6.62785C39.7169 7.1654 41.1703 7.50385 42.7391 8.05733C43.5196 8.34003 44.3319 8.70238 45.0765 9.23594C45.8131 9.76951 46.498 10.4385 47.0594 11.2269C47.6248 12.0073 48.0628 12.8514 48.3893 13.6996C48.7198 14.5437 48.9468 15.3958 49.0862 16.2161C49.3689 17.8606 49.3768 19.3657 49.3291 20.616C49.2773 21.8703 49.1738 22.8777 49.1021 23.5745C49.0623 23.905 49.0344 24.1718 49.0105 24.3748C48.9787 24.562 48.9627 24.6575 48.9548 24.6575Z" fill="#E0E0E0"/>
<path d="M48.3733 9.33972C48.3375 9.37556 47.8796 8.71856 46.8125 8.06952C46.2829 7.74699 45.606 7.43243 44.8255 7.16167C44.0451 6.8909 43.1651 6.6719 42.2294 6.44892C40.3579 5.98305 38.7453 5.26234 37.6742 4.58941C37.1366 4.25494 36.7305 3.94037 36.4677 3.70544C36.2049 3.47052 36.0775 3.32319 36.0854 3.31523C36.0974 3.30328 36.2447 3.4307 36.5195 3.64572C36.7942 3.86074 37.2083 4.15141 37.7498 4.46597C38.8249 5.09908 40.4256 5.78794 42.2772 6.24983C43.2089 6.46883 44.1008 6.69978 44.8853 6.98248C45.6737 7.26519 46.3545 7.59967 46.8881 7.94608C47.4177 8.29648 47.8039 8.6429 48.0349 8.90968C48.1583 9.03312 48.234 9.15258 48.2937 9.22425C48.3494 9.29194 48.3773 9.33574 48.3733 9.33972Z" fill="#E0E0E0"/>
<path d="M45.8569 28.0703C45.8569 28.0703 45.5104 27.8831 45.0366 27.3695C44.5667 26.8638 43.9774 25.9838 43.7385 24.7415C43.6828 24.4309 43.6549 24.1044 43.6549 23.758C43.6629 23.4115 43.7027 23.0572 43.7704 22.6948C43.9058 21.9701 44.1487 21.2255 44.3159 20.4292C44.4831 19.6408 44.5468 18.7608 44.1964 17.9644C43.85 17.1641 43.1492 16.5111 42.763 15.6072C42.3887 14.6993 42.3927 13.7437 42.2214 12.8836C42.0662 12.0195 41.6959 11.2391 41.2379 10.5702C40.78 9.90122 40.2504 9.33182 39.7288 8.82613C39.2112 8.31248 38.6776 7.90633 38.168 7.55195C37.1526 6.84318 36.3443 6.22202 35.9063 5.67253C35.4563 5.13498 35.3448 4.75273 35.3448 4.75273C35.3687 4.74078 35.5081 5.10711 35.97 5.62076C36.4199 6.14636 37.2282 6.73966 38.2556 7.43249C38.7652 7.77891 39.3227 8.19302 39.8483 8.70269C40.3819 9.2044 40.9234 9.77779 41.3972 10.4627C41.8671 11.1436 42.2613 11.9519 42.4245 12.8478C42.5997 13.7317 42.5997 14.6754 42.9581 15.5275C43.3165 16.3796 44.0173 17.0327 44.3876 17.8848C44.7619 18.7448 44.6822 19.6726 44.507 20.473C44.3318 21.2813 44.0849 22.0219 43.9416 22.7307C43.8739 23.085 43.8261 23.4315 43.8142 23.7619C43.8102 24.0964 43.8341 24.415 43.8819 24.7176C44.0929 25.932 44.6504 26.8041 45.0963 27.3177C45.5463 27.8353 45.8728 28.0504 45.8569 28.0703Z" fill="#E0E0E0"/>
<path d="M35.3807 139.812C35.3807 139.888 35.751 139.927 36.1093 140.17C36.4757 140.405 36.6588 140.728 36.7265 140.7C36.7942 140.688 36.6947 140.242 36.2527 139.955C35.8147 139.665 35.3647 139.744 35.3807 139.812Z" fill="#263238"/>
<path d="M33.7801 140.441C33.7602 140.513 34.0787 140.644 34.3256 140.963C34.5804 141.273 34.6362 141.612 34.7118 141.612C34.7795 141.624 34.8392 141.194 34.5286 140.804C34.2181 140.409 33.784 140.369 33.7801 140.441Z" fill="#263238"/>
<path d="M24.152 26.0753L21.6992 21.7511C22.7862 19.9871 23.4114 17.9126 23.4114 15.6907C23.4114 9.2999 18.231 4.12354 11.8442 4.12354C5.45335 4.12354 0.276978 9.30388 0.276978 15.6907C0.276978 22.0815 5.45733 27.2579 11.8442 27.2579C14.512 27.2579 16.9688 26.354 18.9238 24.837L18.9199 24.8409L24.152 26.0753Z" fill="#FAFAFA"/>
<path d="M24.152 26.0753C23.9051 26.0196 22.2447 25.6413 18.9119 24.8768L18.8601 24.8649L18.892 24.8211L18.896 24.8171L18.9477 24.8689C18.2868 25.3785 17.4984 25.8842 16.5666 26.3023C15.6349 26.7164 14.5717 27.0509 13.3931 27.2102C12.8038 27.2858 12.1906 27.3336 11.5615 27.3018C11.2469 27.2858 10.9244 27.2779 10.6018 27.25C10.2793 27.2022 9.95281 27.1504 9.62232 27.1027C8.3123 26.8438 6.97042 26.3461 5.72411 25.5697C4.47382 24.7972 3.31909 23.746 2.39133 22.4599C1.46755 21.1737 0.762764 19.6487 0.436255 17.9883C0.109745 16.3318 0.137618 14.5559 0.571637 12.8398C1.00964 11.1276 1.82591 9.45522 3.05231 8.08149L3.52615 7.55988C3.68144 7.38468 3.86858 7.24133 4.03582 7.08206C4.21102 6.93075 4.37029 6.75953 4.56142 6.62415L5.11489 6.21004C5.29408 6.06669 5.49317 5.94724 5.68828 5.82779C5.88339 5.70833 6.0785 5.58888 6.2736 5.46942C6.48066 5.36988 6.68373 5.27033 6.8868 5.17078C7.09386 5.07522 7.29295 4.96373 7.50797 4.89604C9.1883 4.22709 10.9801 3.97624 12.6963 4.09967C14.4085 4.22311 16.049 4.71287 17.4585 5.50526C18.8681 6.28967 20.0587 7.34088 20.9785 8.51153C21.8983 9.68219 22.5473 10.9763 22.9495 12.2624C23.3477 13.5565 23.4552 14.8386 23.4512 16.0252C23.4153 17.2158 23.2003 18.3108 22.8858 19.2744C22.5712 20.238 22.1531 21.0662 21.7231 21.763V21.7272C23.276 24.5065 24.0325 25.8603 24.152 26.0753C24.0285 25.8643 23.2561 24.5185 21.6673 21.767L21.6554 21.7511L21.6673 21.7352C22.0894 21.0383 22.4955 20.2141 22.8061 19.2545C23.1127 18.2988 23.3238 17.2078 23.3556 16.0292C23.3556 14.8506 23.2441 13.5804 22.8459 12.3022C22.4438 11.028 21.7987 9.74988 20.8829 8.59117C19.9711 7.43246 18.7925 6.39719 17.3948 5.62471C16.0012 4.84427 14.3806 4.35849 12.6883 4.23904C10.996 4.11958 9.22413 4.37044 7.56371 5.03142C7.3487 5.09911 7.15359 5.2106 6.95051 5.30616C6.74744 5.40571 6.54437 5.50128 6.34528 5.60082C6.15415 5.71629 5.95904 5.83575 5.76393 5.9552C5.56882 6.07068 5.37371 6.18615 5.19453 6.32949L4.64504 6.73962C4.45789 6.87102 4.3026 7.04224 4.1274 7.19355C3.96017 7.35282 3.777 7.49617 3.62569 7.66739L3.15982 8.18104C1.94935 9.53884 1.14104 11.1913 0.707017 12.8796C0.27698 14.5758 0.249108 16.3279 0.567654 17.9644C0.890181 19.6049 1.58302 21.11 2.49486 22.3842C3.41067 23.6584 4.54948 24.7016 5.78384 25.4661C7.0182 26.2346 8.34415 26.7324 9.63824 26.9912C9.96475 27.0429 10.2873 27.0907 10.6058 27.1385C10.9244 27.1664 11.2429 27.1743 11.5575 27.1942C12.1826 27.2261 12.7918 27.1823 13.3732 27.1106C14.5399 26.9593 15.599 26.6288 16.5228 26.2267C17.4466 25.8126 18.235 25.3188 18.896 24.8131L19.111 24.6499L18.9438 24.8649L18.9398 24.8689L18.9199 24.8131C22.2527 25.6135 23.9051 26.0156 24.152 26.0753Z" fill="#263238"/>
<path d="M8.58304 15.6873C8.58304 16.3364 8.05744 16.862 7.4084 16.862C6.75937 16.862 6.23376 16.3364 6.23376 15.6873C6.23376 15.0383 6.75937 14.5127 7.4084 14.5127C8.05744 14.5127 8.58304 15.0383 8.58304 15.6873Z" fill="#263238"/>
<path d="M13.2856 15.6873C13.2856 16.3364 12.76 16.862 12.1109 16.862C11.4619 16.862 10.9363 16.3364 10.9363 15.6873C10.9363 15.0383 11.4619 14.5127 12.1109 14.5127C12.76 14.5127 13.2856 15.0383 13.2856 15.6873Z" fill="#263238"/>
<path d="M17.9762 15.0979C18.3027 15.6593 18.1076 16.3801 17.5462 16.7026C16.9847 17.0291 16.264 16.834 15.9415 16.2726C15.615 15.7111 15.8101 14.9904 16.3715 14.6679C16.933 14.3453 17.6537 14.5365 17.9762 15.0979Z" fill="#263238"/>
</svg>
